#Comment line ignore any data following # character 
#Hierarchical Translation and Rotation (.htr) file 
[Header]	
#Header keywords are followed by a single value 
FileType HTR		#Single word string
DataType HTRS		#Translation followed by rotation and scale data
FileVersion 1		#integer
NumSegments 64		#integer
NumFrames 3		#integer
DataFrameRate 30		#integer, data frame rate in this file
EulerRotationOrder ZYX
CalibrationUnits mm
RotationUnits Degrees
GlobalAxisofGravity Y
BoneLengthAxis Y
ScaleFactor 1.00
[SegmentNames&Hierarchy]
#CHILD	PARENT
Pinger_Root GLOBAL
Pelvis Pinger_Root
L_Hip Pelvis
R_Hip Pelvis
Rear_Leg01 Pelvis
Spine1 Pelvis
L_Leg01 L_Hip
L_Leg02 L_Leg01
L_Leg03 L_Leg02
L_Foot L_Leg03
L_Toe1_01 L_Foot
L_Toe2_01 L_Foot
L_Toe3_01 L_Foot
planeAlignerLeft L_Foot
L_Toe1_02 L_Toe1_01
L_Toe1_03 L_Toe1_02
L_Toe2_02 L_Toe2_01
L_Toe2_03 L_Toe2_02
L_Toe3_02 L_Toe3_01
L_Toe3_03 L_Toe3_02
planeLockWeightLeft planeAlignerLeft
R_Leg01 R_Hip
R_Leg02 R_Leg01
R_Leg03 R_Leg02
R_Foot R_Leg03
planeAlignerRight R_Foot
R_Toe1_01 R_Foot
R_Toe2_01 R_Foot
R_Toe3_01 R_Foot
planeLockWeightRight planeAlignerRight
R_Toe1_02 R_Toe1_01
R_Toe1_03 R_Toe1_02
R_Toe2_02 R_Toe2_01
R_Toe2_03 R_Toe2_02
R_Toe3_02 R_Toe3_01
R_Toe3_03 R_Toe3_02
Rear_Leg02 Rear_Leg01
Rear_Leg03 Rear_Leg02
Rear_Leg04 Rear_Leg03
Rear_Foot Rear_Leg04
planeAlignerCenter Rear_Foot
Rear_Toe1_01 Rear_Foot
Rear_Toe2_01 Rear_Foot
Rear_Toe3_01 Rear_Foot
planeLockWeightCenter planeAlignerCenter
Rear_Toe1_02 Rear_Toe1_01
Rear_Toe1_03 Rear_Toe1_02
Rear_Toe2_02 Rear_Toe2_01
Rear_Toe2_03 Rear_Toe2_02
Rear_Toe3_02 Rear_Toe3_01
Rear_Toe3_03 Rear_Toe3_02
Back_Bone Spine1
Head Spine1
Motor_Bone Back_Bone
Ping_Mechanism Back_Bone
BN_LookIK Head
bottomMouth Head
L_Mouth01 Head
L_mouthFront Head
mouthGun Head
R_Mouth01 Head
R_mouthFront Head
TopMouth Head
weapon_bone Head
[BasePosition]
#SegmentName Tx, Ty, Tz, Rx, Ry, Rz, BoneLength
Pinger_Root 0.000000 0.000000 0.000000 -90.000000 0.000000 0.000000 10.000000 
Pelvis 0.000000 0.000000 0.000000 0.000000 0.000000 0.000000 10.000000 
L_Hip 0.000000 0.000000 0.000000 0.000000 0.000000 0.000000 10.000000 
R_Hip 0.000000 0.000000 0.000000 0.000000 0.000000 0.000000 10.000000 
Rear_Leg01 0.000000 0.000000 0.000000 0.000000 0.000000 0.000000 10.000000 
Spine1 0.000000 0.000000 0.000000 0.000000 0.000000 0.000000 10.000000 
L_Leg01 0.000000 0.000000 0.000000 0.000000 0.000000 0.000000 10.000000 
L_Leg02 0.000000 0.000000 0.000000 0.000000 0.000000 0.000000 10.000000 
L_Leg03 0.000000 0.000000 0.000000 0.000000 0.000000 0.000000 10.000000 
L_Foot 0.000000 0.000000 0.000000 0.000000 0.000000 0.000000 10.000000 
L_Toe1_01 0.000000 0.000000 0.000000 0.000000 0.000000 0.000000 10.000000 
L_Toe2_01 0.000000 0.000000 0.000000 0.000000 0.000000 0.000000 10.000000 
L_Toe3_01 0.000000 0.000000 0.000000 0.000000 0.000000 0.000000 10.000000 
planeAlignerLeft 0.000000 0.000000 0.000000 0.000000 0.000000 0.000000 10.000000 
L_Toe1_02 0.000000 0.000000 0.000000 0.000000 0.000000 0.000000 10.000000 
L_Toe1_03 0.000000 0.000000 0.000000 0.000000 0.000000 0.000000 10.000000 
L_Toe2_02 0.000000 0.000000 0.000000 0.000000 0.000000 0.000000 10.000000 
L_Toe2_03 0.000000 0.000000 0.000000 0.000000 0.000000 0.000000 10.000000 
L_Toe3_02 0.000000 0.000000 0.000000 0.000000 0.000000 0.000000 10.000000 
L_Toe3_03 0.000000 0.000000 0.000000 0.000000 0.000000 0.000000 10.000000 
planeLockWeightLeft 0.000000 0.000000 0.000000 0.000000 0.000000 0.000000 10.000000 
R_Leg01 0.000000 0.000000 0.000000 0.000000 0.000000 0.000000 10.000000 
R_Leg02 0.000000 0.000000 0.000000 0.000000 0.000000 0.000000 10.000000 
R_Leg03 0.000000 0.000000 0.000000 0.000000 0.000000 0.000000 10.000000 
R_Foot 0.000000 0.000000 0.000000 0.000000 0.000000 0.000000 10.000000 
planeAlignerRight 0.000000 0.000000 0.000000 0.000000 0.000000 0.000000 10.000000 
R_Toe1_01 0.000000 0.000000 0.000000 0.000000 0.000000 0.000000 10.000000 
R_Toe2_01 0.000000 0.000000 0.000000 0.000000 0.000000 0.000000 10.000000 
R_Toe3_01 0.000000 0.000000 0.000000 0.000000 0.000000 0.000000 10.000000 
planeLockWeightRight 0.000000 0.000000 0.000000 0.000000 0.000000 0.000000 10.000000 
R_Toe1_02 0.000000 0.000000 0.000000 0.000000 0.000000 0.000000 10.000000 
R_Toe1_03 0.000000 0.000000 0.000000 0.000000 0.000000 0.000000 10.000000 
R_Toe2_02 0.000000 0.000000 0.000000 0.000000 0.000000 0.000000 10.000000 
R_Toe2_03 0.000000 0.000000 0.000000 0.000000 0.000000 0.000000 10.000000 
R_Toe3_02 0.000000 0.000000 0.000000 0.000000 0.000000 0.000000 10.000000 
R_Toe3_03 0.000000 0.000000 0.000000 0.000000 0.000000 0.000000 10.000000 
Rear_Leg02 0.000000 0.000000 0.000000 0.000000 0.000000 0.000000 10.000000 
Rear_Leg03 0.000000 0.000000 0.000000 0.000000 0.000000 0.000000 10.000000 
Rear_Leg04 0.000000 0.000000 0.000000 0.000000 0.000000 0.000000 10.000000 
Rear_Foot 0.000000 0.000000 0.000000 0.000000 0.000000 0.000000 10.000000 
planeAlignerCenter 0.000000 0.000000 0.000000 0.000000 0.000000 0.000000 10.000000 
Rear_Toe1_01 0.000000 0.000000 0.000000 0.000000 0.000000 0.000000 10.000000 
Rear_Toe2_01 0.000000 0.000000 0.000000 0.000000 0.000000 0.000000 10.000000 
Rear_Toe3_01 0.000000 0.000000 0.000000 0.000000 0.000000 0.000000 10.000000 
planeLockWeightCenter 0.000000 0.000000 0.000000 0.000000 0.000000 0.000000 10.000000 
Rear_Toe1_02 0.000000 0.000000 0.000000 0.000000 0.000000 0.000000 10.000000 
Rear_Toe1_03 0.000000 0.000000 0.000000 0.000000 0.000000 0.000000 10.000000 
Rear_Toe2_02 0.000000 0.000000 0.000000 0.000000 0.000000 0.000000 10.000000 
Rear_Toe2_03 0.000000 0.000000 0.000000 0.000000 0.000000 0.000000 10.000000 
Rear_Toe3_02 0.000000 0.000000 0.000000 0.000000 0.000000 0.000000 10.000000 
Rear_Toe3_03 0.000000 0.000000 0.000000 0.000000 0.000000 0.000000 10.000000 
Back_Bone 0.000000 0.000000 0.000000 0.000000 0.000000 0.000000 10.000000 
Head 0.000000 0.000000 0.000000 0.000000 0.000000 0.000000 10.000000 
Motor_Bone 0.000000 0.000000 0.000000 0.000000 0.000000 0.000000 10.000000 
Ping_Mechanism 0.000000 0.000000 0.000000 0.000000 0.000000 0.000000 10.000000 
BN_LookIK 0.000000 0.000000 0.000000 0.000000 0.000000 0.000000 10.000000 
bottomMouth 0.000000 0.000000 0.000000 0.000000 0.000000 0.000000 10.000000 
L_Mouth01 0.000000 0.000000 0.000000 0.000000 0.000000 0.000000 10.000000 
L_mouthFront 0.000000 0.000000 0.000000 0.000000 0.000000 0.000000 10.000000 
mouthGun 0.000000 0.000000 0.000000 0.000000 0.000000 0.000000 10.000000 
R_Mouth01 0.000000 0.000000 0.000000 0.000000 0.000000 0.000000 10.000000 
R_mouthFront 0.000000 0.000000 0.000000 0.000000 0.000000 0.000000 10.000000 
TopMouth 0.000000 0.000000 0.000000 0.000000 0.000000 0.000000 10.000000 
weapon_bone 0.000000 0.000000 0.000000 0.000000 0.000000 0.000000 10.000000 
#Beginning of Data. Separated by tabs
#Fr	Tx	Ty	Tz	Rx	Ry	Rz	SF
[Pinger_Root]
218 0.000000 0.000000 0.000000 -0.000075 -0.000000 -0.000020 0.000000
219 0.000000 0.000000 0.000000 -0.000075 -0.000000 -0.000020 0.000000
220 0.000000 0.000000 0.000000 -0.000075 -0.000000 -0.000020 0.000000
[Pelvis]
218 -570.242615 18531.169922 -4591.069336 -164.453735 -75.696503 -172.325409 19099.929688
219 -461.731720 18657.542969 -4675.158203 -156.000153 -75.716583 177.201920 19239.912109
220 -383.679749 18782.884766 -4703.622070 -146.802094 -75.473457 165.832642 19366.673828
[L_Hip]
218 5.766392 125.831482 872.656799 -178.253311 -81.787758 87.381340 881.701050
219 5.766392 125.831482 872.656799 -178.253311 -81.787758 87.381340 881.701050
220 5.766392 125.831482 872.656799 -178.253342 -81.787758 87.381340 881.701050
[R_Hip]
218 5.765438 125.836372 -872.654907 -1.746690 81.787712 87.381248 881.699829
219 5.765438 125.836372 -872.654907 -1.746690 81.787712 87.381248 881.699829
220 5.765438 125.836372 -872.654907 -1.746678 81.787712 87.381248 881.699829
[Rear_Leg01]
218 -192.298416 -925.602966 -0.001907 111.506844 -55.535202 -102.294456 945.367432
219 -192.298416 -925.602966 -0.001907 107.946449 -54.177734 -102.702545 945.367432
220 -192.298416 -925.602966 -0.001907 107.804398 -52.119049 -105.377586 945.367432
[Spine1]
218 290.604584 5.007505 0.000477 -16.850773 19.913965 33.971977 290.647736
219 290.604584 5.007505 0.000477 -15.352828 18.877728 32.200447 290.647736
220 290.604584 5.007505 0.000477 -13.723643 17.648439 30.171696 290.647736
[L_Leg01]
218 761.932007 -0.002384 -0.069261 -154.695999 -50.852676 -148.984329 761.932068
219 761.932007 -0.002384 -0.069261 -132.037888 -52.624535 -168.976532 761.932068
220 761.932007 -0.002384 -0.069261 -110.757072 -54.741173 169.903442 761.932068
[L_Leg02]
218 1441.140503 -0.000954 -0.000715 6.079193 -3.288649 162.570709 1441.140503
219 1441.140503 -0.000954 -0.000715 6.121008 -3.310053 161.805862 1441.140503
220 1441.140503 -0.000954 -0.000715 5.734426 -3.250107 165.915741 1441.140503
[L_Leg03]
218 1686.963989 -0.000715 -0.000954 0.072264 -0.014125 90.218864 1686.963989
219 1686.963989 -0.000715 -0.000954 0.072263 -0.014129 90.225853 1686.963989
220 1686.963989 -0.000715 -0.000954 0.079437 -0.013089 88.704033 1686.963989
[L_Foot]
218 3041.570068 -30.715107 11.297464 -47.702271 8.340967 50.947678 3041.746094
219 3041.570068 -30.715107 11.297464 -44.166550 7.623723 46.475094 3041.746094
220 3041.570068 -30.715107 11.297464 -36.666683 7.525473 44.230610 3041.746094
[L_Toe1_01]
218 -188.216690 -224.732346 -21.137953 82.679893 -3.652792 -140.951416 293.899567
219 -188.216690 -224.732346 -21.137953 82.655891 -3.741715 -140.692276 293.899567
220 -188.216690 -224.732346 -21.137953 82.631477 -3.830525 -140.433060 293.899567
[L_Toe2_01]
218 200.746536 -219.926590 148.838394 -76.212204 -4.617526 -74.991432 332.896027
219 200.746536 -219.926590 148.838394 -76.368462 -4.557018 -74.089928 332.896027
220 200.746536 -219.926590 148.838394 -76.511803 -4.484426 -73.410355 332.896027
[L_Toe3_01]
218 188.832520 -219.859131 -191.078659 -99.834709 7.213665 -76.608582 347.140900
219 188.832520 -219.859131 -191.078659 -99.581169 7.189069 -75.700935 347.140900
220 188.832520 -219.859131 -191.078659 -99.346130 7.150795 -75.019653 347.140900
[planeAlignerLeft]
218 0.812531 -811.448792 -0.314951 0.000000 -90.000000 -90.001900 811.449280
219 0.812531 -811.448792 -0.314951 0.000000 -90.000000 -90.001900 811.449280
220 0.812531 -811.448792 -0.314951 0.000000 -90.000000 -90.001900 811.449280
[L_Toe1_02]
218 413.761139 0.000477 0.000000 0.001459 -17.137856 0.001459 413.761139
219 413.761139 0.000477 0.000000 0.001464 -16.611423 0.001464 413.761139
220 413.761139 0.000477 0.000000 0.001469 -16.085016 0.001469 413.761139
[L_Toe1_03]
218 464.317322 0.000358 -0.000089 -179.995193 79.947914 -179.991684 464.317322
219 464.317322 0.000358 -0.000089 -179.996048 78.460281 -179.992523 464.317322
220 464.317322 0.000358 -0.000089 -179.996704 76.972603 -179.993179 464.317322
[L_Toe2_02]
218 342.235809 -0.000477 0.000238 0.001180 -78.413162 0.001180 342.235809
219 342.235809 -0.000477 0.000238 0.001180 -78.301338 0.001180 342.235809
220 342.235809 -0.000477 0.000238 0.001180 -78.108971 0.001180 342.235809
[L_Toe2_03]
218 420.210846 -0.000715 0.000000 -179.997681 73.822250 -179.994141 420.210846
219 420.210846 -0.000715 0.000000 -179.997452 74.701546 -179.993912 420.210846
220 420.210846 -0.000715 0.000000 -179.997177 75.580925 -179.993652 420.210846
[L_Toe3_02]
218 329.270111 0.000954 0.000000 0.001176 -81.987198 0.001176 329.270111
219 329.270111 0.000954 0.000000 0.001177 -81.887070 0.001177 329.270111
220 329.270111 0.000954 0.000000 0.001177 -81.722206 0.001177 329.270111
[L_Toe3_03]
218 439.137451 -0.001907 0.000954 -179.998154 71.721169 -179.994614 439.137451
219 439.137451 -0.001907 0.000954 -179.997986 72.521095 -179.994446 439.137451
220 439.137451 -0.001907 0.000954 -179.997803 73.321098 -179.994263 439.137451
[planeLockWeightLeft]
218 -0.000954 0.000238 -0.000305 -0.011826 -0.004376 0.005620 0.001029
219 -0.000954 0.000238 -0.000305 -0.011826 -0.004376 0.005620 0.001029
220 -0.000954 0.000238 -0.000305 -0.011826 -0.004376 0.005620 0.001029
[R_Leg01]
218 761.455627 -0.001907 -0.000358 123.529343 -12.718442 93.938248 761.455688
219 761.455627 -0.001907 -0.000358 121.561356 -14.827444 95.391464 761.455688
220 761.455627 -0.001907 -0.000358 119.302818 -17.023088 96.373482 761.455688
[R_Leg02]
218 1441.140625 0.000000 -0.000238 0.007984 0.016594 -108.050911 1441.140625
219 1441.140625 0.000000 -0.000238 -0.135257 0.017522 -112.094437 1441.140625
220 1441.140625 0.000000 -0.000238 -0.205707 0.024665 -114.410011 1441.140625
[R_Leg03]
218 1686.963989 0.000954 0.001431 0.009156 -0.001849 112.828232 1686.963989
219 1686.963989 0.000954 0.001431 0.025309 -0.009551 116.494438 1686.963989
220 1686.963989 0.000954 0.001431 0.027702 -0.014173 118.213913 1686.963989
[R_Foot]
218 3041.560059 -30.531288 -11.204481 4.012766 -23.426260 71.917732 3041.734131
219 3041.560059 -30.531288 -11.204481 1.850929 -23.286276 74.321533 3041.734131
220 3041.560059 -30.531288 -11.204481 0.063278 -23.136751 76.559868 3041.734131
[planeAlignerRight]
218 -0.635147 -812.270569 -0.364304 0.000000 -89.960434 -90.005180 812.270874
219 -0.635147 -812.270569 -0.364304 0.000000 -89.960434 -90.005180 812.270874
220 -0.635147 -812.270569 -0.364304 0.000000 -89.960434 -90.005180 812.270874
[R_Toe1_01]
218 -188.383347 -224.864899 21.052242 92.833885 6.593072 -164.194275 294.101532
219 -188.383347 -224.864899 21.052242 92.924255 6.254200 -163.802383 294.101532
220 -188.383347 -224.864899 21.052242 93.012199 5.914708 -163.411240 294.101532
[R_Toe2_01]
218 200.637817 -220.002121 -148.787384 -96.477875 20.497755 -43.700825 332.857574
219 200.637817 -220.002121 -148.787384 -96.408340 20.021940 -44.008728 332.857574
220 200.637817 -220.002121 -148.787384 -96.336281 19.546474 -44.316319 332.857574
[R_Toe3_01]
218 188.606735 -220.092957 191.126343 -79.139549 -13.387088 -41.924755 347.192566
219 188.606735 -220.092957 191.126343 -78.946136 -13.730644 -42.553524 347.192566
220 188.606735 -220.092957 191.126343 -78.748566 -14.072106 -43.184402 347.192566
[planeLockWeightRight]
218 -0.000477 0.000000 0.000000 -0.011823 -0.004379 -0.000027 0.000477
219 -0.000477 0.000000 0.000000 -0.011823 -0.004379 -0.000027 0.000477
220 -0.000477 0.000000 0.000000 -0.011823 -0.004379 -0.000027 0.000477
[R_Toe1_02]
218 413.762085 0.000477 -0.000119 0.001399 -24.032110 0.001399 413.762085
219 413.762085 0.000477 -0.000119 0.001399 -24.048288 0.001399 413.762085
220 413.762085 0.000477 -0.000119 0.001399 -24.064470 0.001399 413.762085
[R_Toe1_03]
218 464.317810 0.000000 0.001088 0.008116 73.371346 0.008116 464.317810
219 464.317810 0.000000 0.001088 0.007856 72.817291 0.007856 464.317810
220 464.317810 0.000000 0.001088 0.007801 72.694534 0.007801 464.317810
[R_Toe2_02]
218 342.234741 -0.000954 0.000238 -0.002335 -78.533478 -0.002335 342.234741
219 342.234741 -0.000954 0.000238 -0.002334 -78.684517 -0.002334 342.234741
220 342.234741 -0.000954 0.000238 -0.002335 -78.572853 -0.002335 342.234741
[R_Toe2_03]
218 420.210846 0.000715 -0.000268 -179.994553 71.977661 -179.998108 420.210846
219 420.210846 0.000715 -0.000268 -179.994614 71.733368 -179.998154 420.210846
220 420.210846 0.000715 -0.000268 -179.994553 71.977661 -179.998108 420.210846
[R_Toe3_02]
218 329.270355 -0.000477 -0.000954 0.001176 -83.492836 0.001176 329.270355
219 329.270355 -0.000477 -0.000954 0.001176 -83.481308 0.001176 329.270355
220 329.270355 -0.000477 -0.000954 0.001176 -83.324242 0.001176 329.270355
[R_Toe3_03]
218 439.137939 0.000238 0.001431 -179.999405 62.207260 -179.995819 439.137939
219 439.137939 0.000238 0.001431 -179.999359 62.745205 -179.995758 439.137939
220 439.137939 0.000238 0.001431 -179.999283 63.546276 -179.995697 439.137939
[Rear_Leg02]
218 1162.777710 -0.029802 0.005960 -32.313412 -12.451989 158.442871 1162.777710
219 1162.777710 -0.029802 0.005960 -35.344513 -7.375291 166.649078 1162.777710
220 1162.777710 -0.029802 0.005960 -35.291222 -2.171555 173.495346 1162.777710
[Rear_Leg03]
218 607.192505 -0.013351 -0.073195 0.003048 -0.006718 78.305710 607.192505
219 607.192505 -0.013351 -0.073195 0.006688 -0.009973 80.549530 607.192505
220 607.192505 -0.013351 -0.073195 0.009842 -0.006267 81.329659 607.192505
[Rear_Leg04]
218 995.874512 -0.020504 -0.011921 -0.038288 -0.006834 135.260452 995.874573
219 995.874512 -0.020504 -0.011921 -0.037592 -0.009568 126.939461 995.874573
220 995.874512 -0.020504 -0.011921 -0.039420 -0.007529 120.043678 995.874573
[Rear_Foot]
218 3096.176270 -0.067472 -0.041425 148.495712 52.641483 23.647097 3096.176270
219 3096.176270 -0.067472 -0.041425 148.417221 51.440823 21.061062 3096.176270
220 3096.176270 -0.067472 -0.041425 150.025620 50.638409 20.232849 3096.176270
[planeAlignerCenter]
218 0.350077 0.966311 -838.790894 0.000009 0.000003 -179.999985 838.791565
219 0.350077 0.966311 -838.790894 0.000009 0.000003 -179.999985 838.791565
220 0.350077 0.966311 -838.790894 0.000009 0.000003 -179.999985 838.791565
[Rear_Toe1_01]
218 0.653352 83.966492 -371.173737 0.065407 22.522846 90.047829 380.553192
219 0.653352 83.966492 -371.173737 0.068572 23.004433 90.044586 380.553192
220 0.653352 83.966492 -371.173737 0.062836 24.011755 90.048790 380.553192
[Rear_Toe2_01]
218 178.200760 -294.826019 -362.060547 -2.654693 46.968300 -70.938660 499.765686
219 178.200760 -294.826019 -362.060547 -2.611234 47.284927 -70.820030 499.765686
220 178.200760 -294.826019 -362.060547 -2.554948 48.155052 -70.690010 499.765686
[Rear_Toe3_01]
218 -153.359680 -308.780914 -362.060852 -1.835259 46.990120 -113.164604 499.952881
219 -153.359680 -308.780914 -362.060852 -1.937056 47.305397 -113.323555 499.952881
220 -153.359680 -308.780914 -362.060852 -2.076219 48.168392 -113.517746 499.952881
[planeLockWeightCenter]
218 -0.000062 0.000238 0.000000 -0.011814 -0.004373 -0.000015 0.000246
219 -0.000062 0.000238 0.000000 -0.011814 -0.004373 -0.000015 0.000246
220 -0.000062 0.000238 0.000000 -0.011814 -0.004373 -0.000015 0.000246
[Rear_Toe1_02]
218 379.707825 0.194073 0.000477 0.001332 -33.537262 0.001332 379.707855
219 379.707825 0.194073 0.000477 0.001332 -33.531796 0.001332 379.707855
220 379.707825 0.194073 0.000477 0.001333 -33.413033 0.001333 379.707855
[Rear_Toe1_03]
218 500.129700 0.165701 0.000119 0.006796 70.112122 0.006796 500.129761
219 500.129700 0.165701 0.000119 -0.004909 68.842209 -0.001352 500.129761
220 500.129700 0.165701 0.000119 -0.004646 66.821838 -0.001076 500.129761
[Rear_Toe2_02]
218 340.494507 0.000238 -0.000954 0.001174 -85.802361 0.001175 340.494507
219 340.494507 0.000238 -0.000954 -0.049494 -85.903610 0.048344 340.494507
220 340.494507 0.000238 -0.000954 -0.022991 -85.697983 0.023590 340.494507
[Rear_Toe2_03]
218 433.103577 0.000000 0.000238 179.987610 79.137207 179.987610 433.103546
219 433.103577 0.000000 0.000238 179.987900 78.868011 179.987900 433.103546
220 433.103577 0.000000 0.000238 179.987549 79.182114 179.987549 433.103546
[Rear_Toe3_02]
218 340.494141 -0.000358 -0.000477 0.001174 -85.694344 0.001174 340.494171
219 340.494141 -0.000358 -0.000477 0.001174 -85.788765 0.001174 340.494171
220 340.494141 -0.000358 -0.000477 0.001174 -85.667404 0.001174 340.494171
[Rear_Toe3_03]
218 433.103577 0.001431 -0.000238 -179.995514 79.445473 -179.992004 433.103546
219 433.103577 0.001431 -0.000238 -179.995667 79.188515 -179.992142 433.103546
220 433.103577 0.001431 -0.000238 -179.995468 79.509827 -179.991959 433.103546
[Back_Bone]
218 1312.175781 -701.934692 0.000954 0.500125 -0.002086 -88.182945 1488.125488
219 1312.175781 -701.934692 0.000954 0.510590 -0.000983 -90.306244 1488.125488
220 1312.175781 -701.934692 0.000954 0.517854 -0.000494 -92.732231 1488.125488
[Head]
218 1406.159424 809.709290 0.001431 6.488041 2.271173 -0.360093 1622.625488
219 1406.159424 809.709290 0.001431 6.160587 2.188215 -0.133202 1622.625488
220 1406.159424 809.709290 0.001431 5.676448 2.072551 0.480839 1622.625488
[Motor_Bone]
218 1158.364380 -417.834747 0.000477 -0.064560 0.133430 -105.853706 1231.419434
219 1158.364380 -417.834747 0.000477 -5.513623 1.191236 -104.796585 1231.419434
220 1158.364380 -417.834747 0.000477 -3.495488 0.583988 -105.401489 1231.419434
[Ping_Mechanism]
218 1189.619873 -412.419220 -38.938511 0.000103 -0.000053 82.120995 1259.682983
219 1197.684448 -419.525269 -43.385818 0.000103 -0.000053 82.120995 1269.776245
220 1208.222900 -426.521698 -46.674229 0.000103 -0.000053 82.120995 1282.147339
[BN_LookIK]
218 193.241119 1380.371704 -0.002861 0.000000 89.965736 -31.038179 1393.832153
219 193.241119 1380.371704 -0.002861 0.000000 89.965736 -31.038179 1393.832153
220 193.241119 1380.371704 -0.002861 0.000000 89.965736 -31.038179 1393.832153
[bottomMouth]
218 -435.092926 615.759399 -0.000954 -0.000022 0.000016 73.527184 753.966492
219 -435.092926 615.759399 -0.000954 -0.000022 0.000016 73.527184 753.966492
220 -435.092926 615.759399 -0.000954 -0.000022 0.000016 73.527184 753.966492
[L_Mouth01]
218 554.440979 7.658243 838.222046 150.204178 23.759130 109.605339 1005.027161
219 554.440979 7.658243 838.222046 150.204178 23.759130 109.605339 1005.027161
220 554.440979 7.658243 838.222046 150.204178 23.759130 109.605339 1005.027161
[L_mouthFront]
218 551.629089 934.514771 339.150421 0.000081 2.804060 79.119301 1136.941284
219 551.629089 934.514771 339.150421 0.000081 2.804060 79.119301 1136.941284
220 551.629089 934.514771 339.150421 0.000081 2.804060 79.119301 1136.941284
[mouthGun]
218 55.332661 1627.420898 0.000000 0.000023 0.000009 -11.038128 1628.361328
219 55.332661 1627.420898 0.000000 0.000023 0.000009 -11.038128 1628.361328
220 55.332661 1627.420898 0.000000 0.000023 0.000009 -11.038128 1628.361328
[R_Mouth01]
218 554.442383 7.659197 -838.223938 29.795891 -23.759109 109.605331 1005.029541
219 554.442383 7.659197 -838.223938 29.795891 -23.759109 109.605331 1005.029541
220 554.442383 7.659197 -838.223938 29.795891 -23.759109 109.605331 1005.029541
[R_mouthFront]
218 551.629089 934.514282 -339.151367 0.000029 -2.803930 79.119133 1136.941162
219 551.629089 934.514282 -339.151367 0.000029 -2.803930 79.119133 1136.941162
220 551.629089 934.514282 -339.151367 0.000029 -2.803930 79.119133 1136.941162
[TopMouth]
218 461.269867 -56.106091 -0.008583 -0.000059 -0.000268 92.025169 464.669525
219 461.269867 -56.106091 -0.008583 -0.000059 -0.000268 92.025169 464.669525
220 461.269867 -56.106091 -0.008583 -0.000059 -0.000268 92.025169 464.669525
[weapon_bone]
218 -987.239868 1448.372803 0.001431 0.000000 89.965736 -31.038221 1752.833740
219 -987.239868 1448.372803 0.001431 0.000000 89.965736 -31.038221 1752.833740
220 -987.239868 1448.372803 0.001431 0.000000 89.965736 -31.038221 1752.833740
